<?xml version="1.0" standalone="no"?>
<!DOCTYPE svg PUBLIC "-//W3C//DTD SVG 20010904//EN"
 "http://www.w3.org/TR/2001/REC-SVG-20010904/DTD/svg10.dtd">
<svg version="1.0" xmlns="http://www.w3.org/2000/svg"
 width="200.000000pt" height="200.000000pt" viewBox="0 0 200.000000 200.000000"
 preserveAspectRatio="xMidYMid meet">
<metadata>
Created by potrace 1.14, written by Peter Selinger 2001-2017
</metadata>
<g transform="translate(0.000000,200.000000) scale(0.100000,-0.100000)"
fill="#000000" stroke="none">
<path d="M0 1000 l0 -1000 1000 0 1000 0 0 1000 0 1000 -1000 0 -1000 0 0
-1000z m1474 724 c218 -53 349 -241 317 -455 -32 -214 -202 -391 -441 -459
-91 -26 -285 -39 -318 -21 -26 14 -29 47 -4 59 9 5 49 15 87 21 135 23 216 82
283 208 49 93 65 171 60 298 -7 174 -51 250 -162 275 -97 22 -127 -8 -185
-182 -84 -254 -321 -1029 -321 -1049 0 -32 42 -62 116 -84 75 -23 100 -48 71
-69 -24 -18 -802 -19 -817 -1 -18 22 14 44 98 68 89 26 115 43 142 97 25 50
342 1076 348 1127 4 35 1 45 -22 66 -14 13 -46 30 -71 37 -63 18 -76 37 -45
62 23 19 35 20 215 14 104 -3 249 -2 320 2 151 10 246 6 329 -14z"/>
</g>
</svg>
